<svg width="117" height="116" viewBox="0 0 117 116" fill="none" xmlns="http://www.w3.org/2000/svg">
<path d="M80.3265 115.525V70.8575H95.2863L97.5242 53.4931H80.3265V42.4127C80.3265 37.3854 81.7244 33.9549 88.9318 33.9549H98.127V18.4243C93.6756 17.9521 89.2017 17.723 84.7253 17.7382C71.4711 17.7382 62.3978 25.8305 62.3978 40.6942V53.4931H47.4059V70.8575H62.3978V115.525H7.21378C5.51314 115.525 3.88216 114.85 2.67962 113.647C1.47709 112.445 0.801514 110.814 0.801514 109.113V6.51676C0.801514 4.81612 1.47709 3.18514 2.67962 1.9826C3.88216 0.780069 5.51314 0.104492 7.21378 0.104492H109.81C111.511 0.104492 113.142 0.780069 114.344 1.9826C115.547 3.18514 116.222 4.81612 116.222 6.51676V109.113C116.222 110.814 115.547 112.445 114.344 113.647C113.142 114.85 111.511 115.525 109.81 115.525H80.3265Z" fill="#D9D9D9"/>
</svg>
