<svg width="125" height="126" viewBox="0 0 125 126" fill="none" xmlns="http://www.w3.org/2000/svg">
<path d="M62.4678 44.3881C57.5075 44.3881 52.7505 46.3585 49.2431 49.8659C45.7357 53.3733 43.7653 58.1304 43.7653 63.0906C43.7653 68.0508 45.7357 72.8078 49.2431 76.3152C52.7505 79.8226 57.5075 81.793 62.4678 81.793C67.4279 81.793 72.185 79.8226 75.6924 76.3152C79.1998 72.8078 81.1702 68.0508 81.1702 63.0906C81.1702 58.1304 79.1998 53.3733 75.6924 49.8659C72.185 46.3585 67.4279 44.3881 62.4678 44.3881ZM62.4678 31.9198C70.7347 31.9198 78.6632 35.2038 84.5088 41.0495C90.3545 46.8951 93.6385 54.8236 93.6385 63.0906C93.6385 71.3576 90.3545 79.286 84.5088 85.1316C78.6632 90.9773 70.7347 94.2613 62.4678 94.2613C54.2007 94.2613 46.2723 90.9773 40.4267 85.1316C34.581 79.286 31.297 71.3576 31.297 63.0906C31.297 54.8236 34.581 46.8951 40.4267 41.0495C46.2723 35.2038 54.2007 31.9198 62.4678 31.9198ZM102.99 30.3612C102.99 32.428 102.169 34.4101 100.707 35.8715C99.2459 37.3329 97.2638 38.1539 95.1971 38.1539C93.1303 38.1539 91.1482 37.3329 89.6868 35.8715C88.2254 34.4101 87.4044 32.428 87.4044 30.3612C87.4044 28.2945 88.2254 26.3124 89.6868 24.851C91.1482 23.3896 93.1303 22.5686 95.1971 22.5686C97.2638 22.5686 99.2459 23.3896 100.707 24.851C102.169 26.3124 102.99 28.2945 102.99 30.3612ZM62.4678 13.2173C47.0445 13.2173 44.5259 13.261 37.3503 13.5789C32.4628 13.8096 29.1836 14.4642 26.1413 15.6486C23.4357 16.696 21.4844 17.9491 19.4085 20.0313C17.4572 21.9165 15.9569 24.218 15.0196 26.7641C13.8351 29.8189 13.1805 33.0918 12.9561 37.9732C12.6319 44.8557 12.5945 47.262 12.5945 63.0906C12.5945 78.5138 12.6382 81.0324 12.9561 88.2079C13.1868 93.0893 13.8414 96.3747 15.0196 99.4107C16.0794 102.123 17.3262 104.074 19.396 106.144C21.4969 108.238 23.4482 109.491 26.1289 110.526C29.2085 111.717 32.4877 112.378 37.3503 112.602C44.2329 112.926 46.6392 112.964 62.4678 112.964C77.891 112.964 80.4096 112.92 87.5851 112.602C92.4603 112.372 95.7457 111.717 98.7879 110.539C101.487 109.485 103.451 108.232 105.521 106.162C107.622 104.061 108.875 102.11 109.91 99.4294C111.094 96.356 111.755 93.0706 111.979 88.2079C112.304 81.3254 112.341 78.9191 112.341 63.0906C112.341 47.6673 112.297 45.1487 111.979 37.9732C111.749 33.098 111.094 29.8064 109.91 26.7641C108.97 24.2206 107.473 21.92 105.527 20.0313C103.643 18.079 101.341 16.5786 98.7942 15.6424C95.7394 14.4579 92.4603 13.8033 87.5851 13.5789C80.7026 13.2547 78.2963 13.2173 62.4678 13.2173ZM62.4678 0.749023C79.4059 0.749023 81.5193 0.811365 88.1649 1.12307C94.8043 1.43478 99.3241 2.47588 103.301 4.02195C107.416 5.60543 110.882 7.74998 114.348 11.2099C117.518 14.3264 119.971 18.0961 121.536 22.2568C123.076 26.228 124.124 30.754 124.435 37.3934C124.728 44.039 124.809 46.1524 124.809 63.0906C124.809 80.0287 124.747 82.1421 124.435 88.7877C124.124 95.4271 123.076 99.9469 121.536 103.924C119.976 108.087 117.522 111.858 114.348 114.971C111.231 118.14 107.462 120.593 103.301 122.159C99.3303 123.699 94.8043 124.746 88.1649 125.058C81.5193 125.351 79.4059 125.432 62.4678 125.432C45.5296 125.432 43.4162 125.37 36.7706 125.058C30.1312 124.746 25.6114 123.699 21.634 122.159C17.4717 120.597 13.7013 118.144 10.5871 114.971C7.41648 111.855 4.9635 108.085 3.39915 103.924C1.85308 99.9531 0.811977 95.4271 0.50027 88.7877C0.207264 82.1421 0.126221 80.0287 0.126221 63.0906C0.126221 46.1524 0.188562 44.039 0.50027 37.3934C0.811977 30.7478 1.85308 26.2342 3.39915 22.2568C4.95916 18.0936 7.41272 14.3228 10.5871 11.2099C13.7022 8.03819 17.4723 5.58504 21.634 4.02195C25.6114 2.47588 30.125 1.43478 36.7706 1.12307C43.4162 0.830067 45.5296 0.749023 62.4678 0.749023Z" fill="#D9D9D9"/>
</svg>
