<svg width="59" height="59" viewBox="0 0 59 59" fill="none" xmlns="http://www.w3.org/2000/svg">
<path d="M46.5463 42.3738L58.7524 54.577L54.7198 58.6096L42.5166 46.4035C37.9759 50.0435 32.3282 52.0232 26.5087 52.015C12.3504 52.015 0.859619 40.5242 0.859619 26.3659C0.859619 12.2076 12.3504 0.716797 26.5087 0.716797C40.667 0.716797 52.1578 12.2076 52.1578 26.3659C52.1661 32.1854 50.1863 37.8331 46.5463 42.3738ZM40.8294 40.2591C44.4463 36.5397 46.4662 31.5539 46.458 26.3659C46.458 15.3425 37.5293 6.41659 26.5087 6.41659C15.4853 6.41659 6.55942 15.3425 6.55942 26.3659C6.55942 37.3864 15.4853 46.3152 26.5087 46.3152C31.6967 46.3233 36.6825 44.3035 40.402 40.6866L40.8294 40.2591Z" fill="#39EFFB"/>
</svg>
