<svg width="60" height="61" viewBox="0 0 60 61" fill="none" xmlns="http://www.w3.org/2000/svg">
<path d="M5.91293 40.6154V6.41659H0.213135V0.716797H8.76283C9.51867 0.716797 10.2436 1.01705 10.778 1.55151C11.3125 2.08597 11.6127 2.81085 11.6127 3.56669V37.7655H47.0598L52.7596 14.9663H17.3125V9.26649H56.4131C56.8463 9.2665 57.2738 9.36527 57.6631 9.55529C58.0524 9.74531 58.3933 10.0216 58.6598 10.3631C58.9263 10.7046 59.1115 11.1024 59.2012 11.5262C59.2909 11.95 59.2828 12.3887 59.1775 12.8089L52.0528 41.3079C51.8984 41.9242 51.5425 42.4712 51.0417 42.8621C50.5408 43.2529 49.9237 43.4653 49.2884 43.4653H8.76283C8.00699 43.4653 7.28211 43.165 6.74765 42.6306C6.21319 42.0961 5.91293 41.3712 5.91293 40.6154ZM11.6127 60.5647C10.101 60.5647 8.65128 59.9641 7.58236 58.8952C6.51344 57.8263 5.91293 56.3765 5.91293 54.8649C5.91293 53.3532 6.51344 51.9034 7.58236 50.8345C8.65128 49.7656 10.101 49.1651 11.6127 49.1651C13.1244 49.1651 14.5742 49.7656 15.6431 50.8345C16.712 51.9034 17.3125 53.3532 17.3125 54.8649C17.3125 56.3765 16.712 57.8263 15.6431 58.8952C14.5742 59.9641 13.1244 60.5647 11.6127 60.5647ZM45.8115 60.5647C44.2998 60.5647 42.8501 59.9641 41.7811 58.8952C40.7122 57.8263 40.1117 56.3765 40.1117 54.8649C40.1117 53.3532 40.7122 51.9034 41.7811 50.8345C42.8501 49.7656 44.2998 49.1651 45.8115 49.1651C47.3232 49.1651 48.773 49.7656 49.8419 50.8345C50.9108 51.9034 51.5113 53.3532 51.5113 54.8649C51.5113 56.3765 50.9108 57.8263 49.8419 58.8952C48.773 59.9641 47.3232 60.5647 45.8115 60.5647Z" fill="#39EFFB"/>
</svg>
