<svg width="46" height="61" viewBox="0 0 46 61" fill="none" xmlns="http://www.w3.org/2000/svg">
<path d="M0.293457 60.7148C0.293457 54.6681 2.69551 48.869 6.97118 44.5933C11.2469 40.3177 17.0459 37.9156 23.0926 37.9156C29.1394 37.9156 34.9384 40.3177 39.2141 44.5933C43.4898 48.869 45.8918 54.6681 45.8918 60.7148H40.192C40.192 56.1798 38.3905 51.8305 35.1837 48.6237C31.977 45.417 27.6277 43.6154 23.0926 43.6154C18.5576 43.6154 14.2083 45.417 11.0015 48.6237C7.79479 51.8305 5.99325 56.1798 5.99325 60.7148H0.293457ZM23.0926 35.0657C13.6452 35.0657 5.99325 27.4137 5.99325 17.9663C5.99325 8.51892 13.6452 0.866943 23.0926 0.866943C32.5401 0.866943 40.192 8.51892 40.192 17.9663C40.192 27.4137 32.5401 35.0657 23.0926 35.0657ZM23.0926 29.3659C29.3909 29.3659 34.4922 24.2646 34.4922 17.9663C34.4922 11.6681 29.3909 6.56674 23.0926 6.56674C16.7944 6.56674 11.6931 11.6681 11.6931 17.9663C11.6931 24.2646 16.7944 29.3659 23.0926 29.3659Z" fill="#39EFFB"/>
</svg>
